<?xml version="1.0" standalone="no"?>
<svg viewBox="0 0 200 200" xmlns="http://www.w3.org/2000/svg">
  <path fill="#F1C21B" d="M34.7,-56.1C47.1,-53,60.6,-47.9,67,-38.2C73.4,-28.5,72.8,-14.3,70.3,-1.4C67.8,11.4,63.4,22.7,55.8,30.3C48.2,38,37.3,41.9,27.5,52.1C17.6,62.3,8.8,78.8,-2,82.2C-12.7,85.6,-25.4,75.8,-35.9,66C-46.3,56.1,-54.4,46.1,-61.7,35.1C-69,24.1,-75.4,12,-78.2,-1.6C-80.9,-15.2,-80,-30.4,-74.2,-44.2C-68.5,-57.9,-58.1,-70.2,-44.9,-72.8C-31.8,-75.4,-15.9,-68.2,-2.3,-64.2C11.2,-60.1,22.4,-59.1,34.7,-56.1Z" transform="translate(100 100)" />
</svg>
